<svg width="35" height="38" viewBox="0 0 35 38" fill="none" xmlns="http://www.w3.org/2000/svg">
<path d="M17.4757 6.28223C19.0207 6.28223 20.5024 6.9441 21.5948 8.12224C22.6873 9.30039 23.301 10.8983 23.301 12.5644C23.301 14.2306 22.6873 15.8285 21.5948 17.0066C20.5024 18.1848 19.0207 18.8466 17.4757 18.8466C15.9308 18.8466 14.4491 18.1848 13.3567 17.0066C12.2642 15.8285 11.6505 14.2306 11.6505 12.5644C11.6505 10.8983 12.2642 9.30039 13.3567 8.12224C14.4491 6.9441 15.9308 6.28223 17.4757 6.28223ZM17.4757 21.9877C23.9126 21.9877 29.1262 24.799 29.1262 28.27V31.4111H5.82526V28.27C5.82526 24.799 11.0388 21.9877 17.4757 21.9877Z" fill="#212427"/>
</svg>
