<svg width="35" height="38" viewBox="0 0 35 38" fill="none" xmlns="http://www.w3.org/2000/svg">
<path d="M17.4757 26.6994C18.2482 26.6994 18.9891 26.3685 19.5353 25.7794C20.0815 25.1903 20.3884 24.3914 20.3884 23.5583C20.3884 22.7252 20.0815 21.9263 19.5353 21.3372C18.9891 20.7481 18.2482 20.4172 17.4757 20.4172C16.7033 20.4172 15.9624 20.7481 15.4162 21.3372C14.87 21.9263 14.5631 22.7252 14.5631 23.5583C14.5631 24.3914 14.87 25.1903 15.4162 25.7794C15.9624 26.3685 16.7033 26.6994 17.4757 26.6994ZM26.2136 12.5644C26.9861 12.5644 27.7269 12.8954 28.2731 13.4844C28.8194 14.0735 29.1262 14.8725 29.1262 15.7055V31.411C29.1262 32.2441 28.8194 33.0431 28.2731 33.6321C27.7269 34.2212 26.9861 34.5522 26.2136 34.5522H8.73788C7.9654 34.5522 7.22457 34.2212 6.67834 33.6321C6.13212 33.0431 5.82526 32.2441 5.82526 31.411V15.7055C5.82526 14.8725 6.13212 14.0735 6.67834 13.4844C7.22457 12.8954 7.9654 12.5644 8.73788 12.5644H10.1942V9.42332C10.1942 7.34064 10.9613 5.34326 12.3269 3.87058C13.6925 2.3979 15.5446 1.57056 17.4757 1.57056C18.432 1.57056 19.3788 1.77367 20.2623 2.16831C21.1457 2.56295 21.9484 3.14138 22.6246 3.87058C23.3007 4.59977 23.8371 5.46545 24.203 6.4182C24.569 7.37094 24.7573 8.39208 24.7573 9.42332V12.5644H26.2136ZM17.4757 4.71166C16.317 4.71166 15.2058 5.20807 14.3864 6.09167C13.5671 6.97528 13.1068 8.17371 13.1068 9.42332V12.5644H21.8447V9.42332C21.8447 8.17371 21.3844 6.97528 20.565 6.09167C19.7457 5.20807 18.6345 4.71166 17.4757 4.71166Z" fill="#212427"/>
</svg>
